<?xml version="1.0" encoding="utf-8"?>
<!-- Generator: Adobe Illustrator 16.0.0, SVG Export Plug-In . SVG Version: 6.00 Build 0)  -->
<!DOCTYPE svg PUBLIC "-//W3C//DTD SVG 1.1//EN" "http://www.w3.org/Graphics/SVG/1.1/DTD/svg11.dtd">
<svg version="1.1" id="Layer_1" xmlns="http://www.w3.org/2000/svg" xmlns:xlink="http://www.w3.org/1999/xlink" x="0px" y="0px"
	 width="176px" height="52px" viewBox="0 0 176 52" enable-background="new 0 0 176 52" xml:space="preserve">
<g>
	<path fill="#FFFFFF" d="M0,16.372V16.5l29.754,13.764l29.859-13.811v-0.035L29.754,2.608L0,16.372z M10.727,16.436l19.028-8.802
		l19.03,8.802l-19.031,8.801L10.727,16.436z M29.754,35.609L0,22.052v5.015l29.754,13.59L59.613,27.02v-5.015L29.754,35.609z
		 M29.754,45.78L0,32.22v5.015l29.754,13.592l29.859-13.637v-5.014L29.754,45.78z M169.216,26.22c0.018-2.183-0.8-4.291-2.284-5.892
		c-0.699-0.749-1.539-1.35-2.474-1.768c-0.948-0.425-1.976-0.642-3.015-0.636c-1.039-0.006-2.067,0.211-3.016,0.636
		c-0.934,0.418-1.774,1.02-2.473,1.768c-1.485,1.601-2.303,3.709-2.285,5.893c-0.018,2.183,0.8,4.292,2.285,5.893
		c0.698,0.747,1.539,1.349,2.473,1.767c0.948,0.426,1.977,0.643,3.016,0.637c1.039,0.006,2.066-0.211,3.015-0.637
		c0.935-0.418,1.774-1.02,2.474-1.767c1.484-1.602,2.303-3.71,2.284-5.893V26.22z M176,26.22c0,2.044-0.377,3.938-1.13,5.681
		c-0.724,1.701-1.782,3.24-3.11,4.526c-1.318,1.273-2.865,2.279-4.64,3.017c-1.774,0.74-3.667,1.108-5.677,1.108
		s-3.895-0.37-5.653-1.108c-1.718-0.711-3.284-1.742-4.617-3.039c-1.325-1.298-2.382-2.844-3.11-4.551
		c-0.752-1.744-1.129-3.621-1.129-5.632c0-1.98,0.385-3.842,1.153-5.586c0.745-1.709,1.809-3.261,3.134-4.573
		c1.326-1.31,2.895-2.35,4.616-3.064c1.759-0.739,3.627-1.108,5.606-1.108c2.01,0,3.902,0.369,5.677,1.108
		c1.774,0.738,3.321,1.744,4.64,3.017c1.32,1.272,2.356,2.789,3.11,4.549c0.753,1.76,1.13,3.645,1.13,5.657V26.22z M144.578,39.703
		c-0.582,0.268-1.189,0.473-1.814,0.613c-0.688,0.158-1.391,0.237-2.096,0.235c-1.005,0-1.971-0.134-2.898-0.399
		c-0.893-0.25-1.721-0.693-2.426-1.297c-0.689-0.598-1.24-1.375-1.648-2.334s-0.612-2.113-0.612-3.465V0.717h6.925v31.16
		c0,1.132,0.229,1.91,0.684,2.334c0.455,0.425,0.996,0.637,1.625,0.637c0.785,0,1.539-0.236,2.262-0.707V39.703L144.578,39.703z
		 M130.02,12.55l-12.248,32.386c-0.91,2.42-2.104,4.164-3.58,5.233c-1.477,1.067-3.235,1.603-5.277,1.603
		c-0.347-0.002-0.692-0.025-1.036-0.07c-0.366-0.045-0.728-0.116-1.083-0.212l-2.262-6.317c0.529,0.25,1.082,0.447,1.65,0.59
		c0.521,0.136,1.06,0.207,1.6,0.211c1.068,0,2.042-0.242,2.922-0.729c0.879-0.488,1.554-1.392,2.025-2.711l0.942-2.734
		L103.167,12.55h7.396l6.267,17.536l5.889-17.536H130.02z M101.518,8.448H83.806v8.769h17.478v5.94H83.806v16.688h-7.16V2.179
		h24.874v6.27L101.518,8.448z"/>
</g>
</svg>
